{"asset":{"version":"2.0","generator":"babylon.js glTF exporter for 3dsmax 2021 v20210624.1"},"scene":0,"scenes":[{"nodes":[0]}],"nodes":[{"children":[1,3,5],"translation":[0.178368092,0.0,-0.1905273],"scale":[0.0254,0.0254,0.0254],"name":"Building"},{"children":[2],"translation":[0.0,787.402466,0.0],"scale":[0.0393700078,0.0393700078,0.0393700078],"name":"Floor6"},{"mesh":0,"translation":[-5839.6665,100.0,-13534.3164],"name":"Stairs003"},{"children":[4],"translation":[1228.16455,1259.842,25.8258076],"scale":[0.0393700078,0.0393700078,0.0393700078],"name":"Floor9"},{"name":"Doors"},{"children":[6,7],"translation":[7.58670044,944.882935,25.8258076],"scale":[0.0393700078,0.0393700078,0.0393700078],"name":"Floor011"},{"name":"Doors001"},{"name":"Windows001"}],"meshes":[{"primitives":[{"attributes":{"POSITION":1,"NORMAL":2,"TEXCOORD_0":3},"indices":0,"material":0},{"attributes":{"POSITION":5,"NORMAL":6,"TEXCOORD_0":7},"indices":4,"material":1},{"attributes":{"POSITION":9,"NORMAL":10,"TEXCOORD_0":11},"indices":8,"material":2},{"attributes":{"POSITION":13,"NORMAL":14,"TEXCOORD_0":15},"indices":12,"material":3},{"attributes":{"POSITION":17,"NORMAL":18,"TEXCOORD_0":19},"indices":16,"material":4}],"name":"Stairs003"}],"accessors":[{"bufferView":0,"componentType":5123,"count":3924,"type":"SCALAR","name":"accessorIndices"},{"bufferView":1,"componentType":5126,"count":3924,"max":[16656.6875,2240.0,31622.1445],"min":[-4584.215,-100.003662,-2967.19824],"type":"VEC3","name":"accessorPositions"},{"bufferView":1,"byteOffset":47088,"componentType":5126,"count":3924,"type":"VEC3","name":"accessorNormals"},{"bufferView":2,"componentType":5126,"count":3924,"type":"VEC2","name":"accessorUVs"},{"bufferView":0,"byteOffset":7848,"componentType":5123,"count":11652,"type":"SCALAR","name":"accessorIndices"},{"bufferView":1,"byteOffset":94176,"componentType":5126,"count":11652,"max":[16656.6855,3900.0,31584.0117],"min":[-4586.51758,0.0,-2967.19531],"type":"VEC3","name":"accessorPositions"},{"bufferView":1,"byteOffset":234000,"componentType":5126,"count":11652,"type":"VEC3","name":"accessorNormals"},{"bufferView":2,"byteOffset":31392,"componentType":5126,"count":11652,"type":"VEC2","name":"accessorUVs"},{"bufferView":0,"byteOffset":31152,"componentType":5123,"count":11436,"type":"SCALAR","name":"accessorIndices"},{"bufferView":1,"byteOffset":373824,"componentType":5126,"count":11436,"max":[16656.69,3900.001,31584.0137],"min":[-3474.877,-0.00184219936,-2967.20435],"type":"VEC3","name":"accessorPositions"},{"bufferView":1,"byteOffset":511056,"componentType":5126,"count":11436,"type":"VEC3","name":"accessorNormals"},{"bufferView":2,"byteOffset":124608,"componentType":5126,"count":11436,"type":"VEC2","name":"accessorUVs"},{"bufferView":0,"byteOffset":54024,"componentType":5123,"count":2484,"type":"SCALAR","name":"accessorIndices"},{"bufferView":1,"byteOffset":648288,"componentType":5126,"count":2484,"max":[16636.8125,3856.58179,31549.6816],"min":[-2003.27979,41.8348274,-2947.32739],"type":"VEC3","name":"accessorPositions"},{"bufferView":1,"byteOffset":678096,"componentType":5126,"count":2484,"type":"VEC3","name":"accessorNormals"},{"bufferView":2,"byteOffset":216096,"componentType":5126,"count":2484,"type":"VEC2","name":"accessorUVs"},{"bufferView":0,"byteOffset":58992,"componentType":5123,"count":936,"type":"SCALAR","name":"accessorIndices"},{"bufferView":1,"byteOffset":707904,"componentType":5126,"count":936,"max":[10664.4834,1981.0,27933.6973],"min":[-3426.43359,-1.56331535E-05,2876.80859],"type":"VEC3","name":"accessorPositions"},{"bufferView":1,"byteOffset":719136,"componentType":5126,"count":936,"type":"VEC3","name":"accessorNormals"},{"bufferView":2,"byteOffset":235968,"componentType":5126,"count":936,"type":"VEC2","name":"accessorUVs"}],"bufferViews":[{"buffer":0,"byteLength":60864,"name":"bufferViewScalar"},{"buffer":0,"byteOffset":60864,"byteLength":730368,"byteStride":12,"name":"bufferViewFloatVec3"},{"buffer":0,"byteOffset":791232,"byteLength":243456,"byteStride":8,"name":"bufferViewFloatVec2"}],"buffers":[{"uri":"570 Dunsmuir.bin","byteLength":1034688}],"materials":[{"pbrMetallicRoughness":{"baseColorFactor":[0.8352942,0.8352942,0.8352942,1.0],"metallicFactor":0.0,"roughnessFactor":0.9},"doubleSided":true,"name":"Floor","extras":{"babylonSeparateCullingPass":false}},{"pbrMetallicRoughness":{"baseColorFactor":[0.8352942,0.8352942,0.8352942,1.0],"metallicFactor":0.0,"roughnessFactor":0.9},"doubleSided":true,"name":"Walls","extras":{"babylonSeparateCullingPass":false}},{"pbrMetallicRoughness":{"baseColorFactor":[0.0509803966,0.0509803966,0.0509803966,1.0],"metallicFactor":0.0,"roughnessFactor":0.9},"doubleSided":true,"name":"Black"},{"pbrMetallicRoughness":{"baseColorFactor":[0.105882362,0.168627456,0.48627454,1.0],"metallicFactor":0.0,"roughnessFactor":0.9},"doubleSided":true,"name":"Glass"},{"pbrMetallicRoughness":{"baseColorFactor":[0.8470589,0.8470589,0.8470589,1.0],"metallicFactor":0.0,"roughnessFactor":0.9},"doubleSided":true,"name":"Color"}]}